<mxfile host="app.diagrams.net" modified="2020-07-19T08:21:20.155Z" agent="5.0 (Macintosh; Intel Mac OS X 10_15_5) AppleWebKit/537.36 (KHTML, like Gecko) Chrome/83.0.4103.116 Safari/537.36" etag="HQCcR29X8HntvHiZ6Dj8" version="13.4.6" type="github">
  <diagram id="Sbj-qc--tvWjPdyRsy3h" name="Page-1">
    <mxGraphModel dx="2066" dy="1105" grid="1" gridSize="10" guides="1" tooltips="1" connect="1" arrows="1" fold="1" page="1" pageScale="1" pageWidth="827" pageHeight="1169" math="0" shadow="0">
      <root>
        <mxCell id="0" />
        <mxCell id="1" parent="0" />
        <mxCell id="2tSrmv2itzcELC8ZZpCl-1" style="edgeStyle=orthogonalEdgeStyle;rounded=0;orthogonalLoop=1;jettySize=auto;html=1;entryX=0;entryY=0.25;entryDx=0;entryDy=0;strokeWidth=2;" edge="1" parent="1" source="2tSrmv2itzcELC8ZZpCl-2" target="2tSrmv2itzcELC8ZZpCl-4">
          <mxGeometry relative="1" as="geometry">
            <Array as="points">
              <mxPoint x="460" y="235" />
              <mxPoint x="460" y="235" />
            </Array>
          </mxGeometry>
        </mxCell>
        <mxCell id="2tSrmv2itzcELC8ZZpCl-2" value="&lt;font style=&quot;font-size: 16px&quot;&gt;8259&lt;/font&gt;" style="rounded=0;whiteSpace=wrap;html=1;gradientColor=#b3b3b3;fillColor=#f5f5f5;strokeColor=#666666;" vertex="1" parent="1">
          <mxGeometry x="360" y="220" width="90" height="300" as="geometry" />
        </mxCell>
        <mxCell id="2tSrmv2itzcELC8ZZpCl-3" style="edgeStyle=orthogonalEdgeStyle;rounded=0;orthogonalLoop=1;jettySize=auto;html=1;strokeWidth=2;" edge="1" parent="1" source="2tSrmv2itzcELC8ZZpCl-4">
          <mxGeometry relative="1" as="geometry">
            <mxPoint x="449" y="270" as="targetPoint" />
            <Array as="points">
              <mxPoint x="449" y="270" />
            </Array>
          </mxGeometry>
        </mxCell>
        <mxCell id="2tSrmv2itzcELC8ZZpCl-4" value="&lt;font style=&quot;font-size: 16px&quot;&gt;CPU&lt;/font&gt;" style="rounded=0;whiteSpace=wrap;html=1;fillColor=#76608a;strokeColor=#432D57;fontColor=#ffffff;" vertex="1" parent="1">
          <mxGeometry x="540" y="220" width="90" height="60" as="geometry" />
        </mxCell>
        <mxCell id="2tSrmv2itzcELC8ZZpCl-5" value="" style="endArrow=classic;html=1;entryX=0;entryY=0;entryDx=0;entryDy=0;" edge="1" parent="1" target="2tSrmv2itzcELC8ZZpCl-2">
          <mxGeometry width="50" height="50" relative="1" as="geometry">
            <mxPoint x="260" y="220" as="sourcePoint" />
            <mxPoint x="280" y="220" as="targetPoint" />
          </mxGeometry>
        </mxCell>
        <mxCell id="2tSrmv2itzcELC8ZZpCl-6" value="" style="endArrow=classic;html=1;entryX=0;entryY=0;entryDx=0;entryDy=0;" edge="1" parent="1">
          <mxGeometry width="50" height="50" relative="1" as="geometry">
            <mxPoint x="260" y="270" as="sourcePoint" />
            <mxPoint x="360" y="270" as="targetPoint" />
          </mxGeometry>
        </mxCell>
        <mxCell id="2tSrmv2itzcELC8ZZpCl-7" value="" style="endArrow=classic;html=1;entryX=0;entryY=0;entryDx=0;entryDy=0;" edge="1" parent="1">
          <mxGeometry width="50" height="50" relative="1" as="geometry">
            <mxPoint x="260" y="320" as="sourcePoint" />
            <mxPoint x="360" y="320" as="targetPoint" />
          </mxGeometry>
        </mxCell>
        <mxCell id="2tSrmv2itzcELC8ZZpCl-8" value="" style="endArrow=classic;html=1;entryX=0;entryY=0;entryDx=0;entryDy=0;" edge="1" parent="1">
          <mxGeometry width="50" height="50" relative="1" as="geometry">
            <mxPoint x="260" y="370" as="sourcePoint" />
            <mxPoint x="360" y="370" as="targetPoint" />
          </mxGeometry>
        </mxCell>
        <mxCell id="2tSrmv2itzcELC8ZZpCl-9" value="" style="endArrow=classic;html=1;entryX=0;entryY=0;entryDx=0;entryDy=0;" edge="1" parent="1">
          <mxGeometry width="50" height="50" relative="1" as="geometry">
            <mxPoint x="260" y="420" as="sourcePoint" />
            <mxPoint x="360" y="420" as="targetPoint" />
          </mxGeometry>
        </mxCell>
        <mxCell id="2tSrmv2itzcELC8ZZpCl-10" value="" style="endArrow=classic;html=1;entryX=0;entryY=0;entryDx=0;entryDy=0;" edge="1" parent="1">
          <mxGeometry width="50" height="50" relative="1" as="geometry">
            <mxPoint x="260" y="470" as="sourcePoint" />
            <mxPoint x="360" y="470" as="targetPoint" />
          </mxGeometry>
        </mxCell>
        <mxCell id="2tSrmv2itzcELC8ZZpCl-11" value="" style="endArrow=classic;html=1;entryX=0;entryY=0;entryDx=0;entryDy=0;" edge="1" parent="1">
          <mxGeometry width="50" height="50" relative="1" as="geometry">
            <mxPoint x="260" y="520" as="sourcePoint" />
            <mxPoint x="360" y="520" as="targetPoint" />
          </mxGeometry>
        </mxCell>
        <mxCell id="2tSrmv2itzcELC8ZZpCl-15" value="&lt;font style=&quot;font-size: 16px&quot;&gt;INT&lt;/font&gt;" style="text;html=1;align=center;verticalAlign=middle;resizable=0;points=[];autosize=1;" vertex="1" parent="1">
          <mxGeometry x="475" y="210" width="40" height="20" as="geometry" />
        </mxCell>
        <mxCell id="2tSrmv2itzcELC8ZZpCl-16" value="&lt;font style=&quot;font-size: 16px&quot;&gt;INTA&lt;/font&gt;" style="text;html=1;align=center;verticalAlign=middle;resizable=0;points=[];autosize=1;" vertex="1" parent="1">
          <mxGeometry x="470" y="250" width="50" height="20" as="geometry" />
        </mxCell>
        <mxCell id="2tSrmv2itzcELC8ZZpCl-17" style="edgeStyle=orthogonalEdgeStyle;rounded=0;orthogonalLoop=1;jettySize=auto;html=1;entryX=0;entryY=0.25;entryDx=0;entryDy=0;strokeWidth=2;" edge="1" parent="1" source="2tSrmv2itzcELC8ZZpCl-18" target="2tSrmv2itzcELC8ZZpCl-20">
          <mxGeometry relative="1" as="geometry">
            <Array as="points">
              <mxPoint x="460" y="615" />
              <mxPoint x="460" y="615" />
            </Array>
          </mxGeometry>
        </mxCell>
        <mxCell id="2tSrmv2itzcELC8ZZpCl-71" style="edgeStyle=orthogonalEdgeStyle;rounded=0;orthogonalLoop=1;jettySize=auto;html=1;entryX=0;entryY=0.5;entryDx=0;entryDy=0;" edge="1" parent="1" source="2tSrmv2itzcELC8ZZpCl-18" target="2tSrmv2itzcELC8ZZpCl-38">
          <mxGeometry relative="1" as="geometry">
            <Array as="points">
              <mxPoint x="405" y="550" />
              <mxPoint x="180" y="550" />
              <mxPoint x="180" y="310" />
            </Array>
          </mxGeometry>
        </mxCell>
        <mxCell id="2tSrmv2itzcELC8ZZpCl-18" value="&lt;font style=&quot;font-size: 16px&quot;&gt;8259&lt;/font&gt;" style="rounded=0;whiteSpace=wrap;html=1;gradientColor=#b3b3b3;fillColor=#f5f5f5;strokeColor=#666666;" vertex="1" parent="1">
          <mxGeometry x="360" y="600" width="90" height="300" as="geometry" />
        </mxCell>
        <mxCell id="2tSrmv2itzcELC8ZZpCl-19" style="edgeStyle=orthogonalEdgeStyle;rounded=0;orthogonalLoop=1;jettySize=auto;html=1;strokeWidth=2;" edge="1" parent="1" source="2tSrmv2itzcELC8ZZpCl-20">
          <mxGeometry relative="1" as="geometry">
            <mxPoint x="449" y="650" as="targetPoint" />
            <Array as="points">
              <mxPoint x="449" y="650" />
            </Array>
          </mxGeometry>
        </mxCell>
        <mxCell id="2tSrmv2itzcELC8ZZpCl-20" value="&lt;font style=&quot;font-size: 16px&quot;&gt;CPU&lt;/font&gt;" style="rounded=0;whiteSpace=wrap;html=1;fillColor=#76608a;strokeColor=#432D57;fontColor=#ffffff;" vertex="1" parent="1">
          <mxGeometry x="540" y="600" width="90" height="60" as="geometry" />
        </mxCell>
        <mxCell id="2tSrmv2itzcELC8ZZpCl-21" value="" style="endArrow=classic;html=1;entryX=0;entryY=0;entryDx=0;entryDy=0;" edge="1" parent="1" target="2tSrmv2itzcELC8ZZpCl-18">
          <mxGeometry width="50" height="50" relative="1" as="geometry">
            <mxPoint x="260" y="600" as="sourcePoint" />
            <mxPoint x="280" y="600" as="targetPoint" />
          </mxGeometry>
        </mxCell>
        <mxCell id="2tSrmv2itzcELC8ZZpCl-22" value="" style="endArrow=classic;html=1;entryX=0;entryY=0;entryDx=0;entryDy=0;" edge="1" parent="1">
          <mxGeometry width="50" height="50" relative="1" as="geometry">
            <mxPoint x="260" y="650" as="sourcePoint" />
            <mxPoint x="360" y="650" as="targetPoint" />
          </mxGeometry>
        </mxCell>
        <mxCell id="2tSrmv2itzcELC8ZZpCl-23" value="" style="endArrow=classic;html=1;entryX=0;entryY=0;entryDx=0;entryDy=0;" edge="1" parent="1">
          <mxGeometry width="50" height="50" relative="1" as="geometry">
            <mxPoint x="260" y="700" as="sourcePoint" />
            <mxPoint x="360" y="700" as="targetPoint" />
          </mxGeometry>
        </mxCell>
        <mxCell id="2tSrmv2itzcELC8ZZpCl-24" value="" style="endArrow=classic;html=1;entryX=0;entryY=0;entryDx=0;entryDy=0;" edge="1" parent="1">
          <mxGeometry width="50" height="50" relative="1" as="geometry">
            <mxPoint x="260" y="750" as="sourcePoint" />
            <mxPoint x="360" y="750" as="targetPoint" />
          </mxGeometry>
        </mxCell>
        <mxCell id="2tSrmv2itzcELC8ZZpCl-25" value="" style="endArrow=classic;html=1;entryX=0;entryY=0;entryDx=0;entryDy=0;" edge="1" parent="1">
          <mxGeometry width="50" height="50" relative="1" as="geometry">
            <mxPoint x="260" y="800" as="sourcePoint" />
            <mxPoint x="360" y="800" as="targetPoint" />
          </mxGeometry>
        </mxCell>
        <mxCell id="2tSrmv2itzcELC8ZZpCl-26" value="" style="endArrow=classic;html=1;entryX=0;entryY=0;entryDx=0;entryDy=0;" edge="1" parent="1">
          <mxGeometry width="50" height="50" relative="1" as="geometry">
            <mxPoint x="260" y="850" as="sourcePoint" />
            <mxPoint x="360" y="850" as="targetPoint" />
          </mxGeometry>
        </mxCell>
        <mxCell id="2tSrmv2itzcELC8ZZpCl-27" value="" style="endArrow=classic;html=1;entryX=0;entryY=0;entryDx=0;entryDy=0;" edge="1" parent="1">
          <mxGeometry width="50" height="50" relative="1" as="geometry">
            <mxPoint x="260" y="900" as="sourcePoint" />
            <mxPoint x="360" y="900" as="targetPoint" />
          </mxGeometry>
        </mxCell>
        <mxCell id="2tSrmv2itzcELC8ZZpCl-31" value="&lt;font style=&quot;font-size: 16px&quot;&gt;INT&lt;/font&gt;" style="text;html=1;align=center;verticalAlign=middle;resizable=0;points=[];autosize=1;" vertex="1" parent="1">
          <mxGeometry x="475" y="590" width="40" height="20" as="geometry" />
        </mxCell>
        <mxCell id="2tSrmv2itzcELC8ZZpCl-32" value="&lt;font style=&quot;font-size: 16px&quot;&gt;INTA&lt;/font&gt;" style="text;html=1;align=center;verticalAlign=middle;resizable=0;points=[];autosize=1;" vertex="1" parent="1">
          <mxGeometry x="470" y="630" width="50" height="20" as="geometry" />
        </mxCell>
        <mxCell id="2tSrmv2itzcELC8ZZpCl-33" value="" style="shape=table;html=1;whiteSpace=wrap;startSize=0;container=1;collapsible=0;childLayout=tableLayout;" vertex="1" parent="1">
          <mxGeometry x="200" y="210" width="60" height="320" as="geometry" />
        </mxCell>
        <mxCell id="2tSrmv2itzcELC8ZZpCl-34" value="" style="shape=partialRectangle;html=1;whiteSpace=wrap;collapsible=0;dropTarget=0;pointerEvents=0;fillColor=none;top=0;left=0;bottom=0;right=0;points=[[0,0.5],[1,0.5]];portConstraint=eastwest;" vertex="1" parent="2tSrmv2itzcELC8ZZpCl-33">
          <mxGeometry width="60" height="40" as="geometry" />
        </mxCell>
        <mxCell id="2tSrmv2itzcELC8ZZpCl-35" value="System&lt;br&gt;timer" style="shape=partialRectangle;html=1;whiteSpace=wrap;connectable=0;overflow=hidden;fillColor=none;top=0;left=0;bottom=0;right=0;" vertex="1" parent="2tSrmv2itzcELC8ZZpCl-34">
          <mxGeometry width="60" height="40" as="geometry" />
        </mxCell>
        <mxCell id="2tSrmv2itzcELC8ZZpCl-36" value="" style="shape=partialRectangle;html=1;whiteSpace=wrap;collapsible=0;dropTarget=0;pointerEvents=0;fillColor=none;top=0;left=0;bottom=0;right=0;points=[[0,0.5],[1,0.5]];portConstraint=eastwest;" vertex="1" parent="2tSrmv2itzcELC8ZZpCl-33">
          <mxGeometry y="40" width="60" height="40" as="geometry" />
        </mxCell>
        <mxCell id="2tSrmv2itzcELC8ZZpCl-37" value="Keyboard" style="shape=partialRectangle;html=1;whiteSpace=wrap;connectable=0;overflow=hidden;fillColor=none;top=0;left=0;bottom=0;right=0;" vertex="1" parent="2tSrmv2itzcELC8ZZpCl-36">
          <mxGeometry width="60" height="40" as="geometry" />
        </mxCell>
        <mxCell id="2tSrmv2itzcELC8ZZpCl-38" value="" style="shape=partialRectangle;html=1;whiteSpace=wrap;collapsible=0;dropTarget=0;pointerEvents=0;fillColor=none;top=0;left=0;bottom=0;right=0;points=[[0,0.5],[1,0.5]];portConstraint=eastwest;" vertex="1" parent="2tSrmv2itzcELC8ZZpCl-33">
          <mxGeometry y="80" width="60" height="40" as="geometry" />
        </mxCell>
        <mxCell id="2tSrmv2itzcELC8ZZpCl-39" value="" style="shape=partialRectangle;html=1;whiteSpace=wrap;connectable=0;overflow=hidden;fillColor=none;top=0;left=0;bottom=0;right=0;" vertex="1" parent="2tSrmv2itzcELC8ZZpCl-38">
          <mxGeometry width="60" height="40" as="geometry" />
        </mxCell>
        <mxCell id="2tSrmv2itzcELC8ZZpCl-40" value="" style="shape=partialRectangle;html=1;whiteSpace=wrap;collapsible=0;dropTarget=0;pointerEvents=0;fillColor=none;top=0;left=0;bottom=0;right=0;points=[[0,0.5],[1,0.5]];portConstraint=eastwest;" vertex="1" parent="2tSrmv2itzcELC8ZZpCl-33">
          <mxGeometry y="120" width="60" height="40" as="geometry" />
        </mxCell>
        <mxCell id="2tSrmv2itzcELC8ZZpCl-41" value="Serial&lt;br&gt;Devices" style="shape=partialRectangle;html=1;whiteSpace=wrap;connectable=0;overflow=hidden;fillColor=none;top=0;left=0;bottom=0;right=0;" vertex="1" parent="2tSrmv2itzcELC8ZZpCl-40">
          <mxGeometry width="60" height="40" as="geometry" />
        </mxCell>
        <mxCell id="2tSrmv2itzcELC8ZZpCl-42" value="" style="shape=partialRectangle;html=1;whiteSpace=wrap;collapsible=0;dropTarget=0;pointerEvents=0;fillColor=none;top=0;left=0;bottom=0;right=0;points=[[0,0.5],[1,0.5]];portConstraint=eastwest;" vertex="1" parent="2tSrmv2itzcELC8ZZpCl-33">
          <mxGeometry y="160" width="60" height="40" as="geometry" />
        </mxCell>
        <mxCell id="2tSrmv2itzcELC8ZZpCl-43" value="&lt;meta charset=&quot;utf-8&quot;&gt;&lt;span style=&quot;color: rgb(0, 0, 0); font-family: helvetica; font-size: 12px; font-style: normal; font-weight: 400; letter-spacing: normal; text-align: center; text-indent: 0px; text-transform: none; word-spacing: 0px; background-color: rgb(248, 249, 250); display: inline; float: none;&quot;&gt;Serial&lt;/span&gt;&lt;br style=&quot;color: rgb(0, 0, 0); font-family: helvetica; font-size: 12px; font-style: normal; font-weight: 400; letter-spacing: normal; text-align: center; text-indent: 0px; text-transform: none; word-spacing: 0px; background-color: rgb(248, 249, 250);&quot;&gt;&lt;span style=&quot;color: rgb(0, 0, 0); font-family: helvetica; font-size: 12px; font-style: normal; font-weight: 400; letter-spacing: normal; text-align: center; text-indent: 0px; text-transform: none; word-spacing: 0px; background-color: rgb(248, 249, 250); display: inline; float: none;&quot;&gt;Devices&lt;/span&gt;" style="shape=partialRectangle;html=1;whiteSpace=wrap;connectable=0;overflow=hidden;fillColor=none;top=0;left=0;bottom=0;right=0;" vertex="1" parent="2tSrmv2itzcELC8ZZpCl-42">
          <mxGeometry width="60" height="40" as="geometry" />
        </mxCell>
        <mxCell id="2tSrmv2itzcELC8ZZpCl-44" value="" style="shape=partialRectangle;html=1;whiteSpace=wrap;collapsible=0;dropTarget=0;pointerEvents=0;fillColor=none;top=0;left=0;bottom=0;right=0;points=[[0,0.5],[1,0.5]];portConstraint=eastwest;" vertex="1" parent="2tSrmv2itzcELC8ZZpCl-33">
          <mxGeometry y="200" width="60" height="40" as="geometry" />
        </mxCell>
        <mxCell id="2tSrmv2itzcELC8ZZpCl-45" value="Parallel Devices" style="shape=partialRectangle;html=1;whiteSpace=wrap;connectable=0;overflow=hidden;fillColor=none;top=0;left=0;bottom=0;right=0;" vertex="1" parent="2tSrmv2itzcELC8ZZpCl-44">
          <mxGeometry width="60" height="40" as="geometry" />
        </mxCell>
        <mxCell id="2tSrmv2itzcELC8ZZpCl-46" value="" style="shape=partialRectangle;html=1;whiteSpace=wrap;collapsible=0;dropTarget=0;pointerEvents=0;fillColor=none;top=0;left=0;bottom=0;right=0;points=[[0,0.5],[1,0.5]];portConstraint=eastwest;" vertex="1" parent="2tSrmv2itzcELC8ZZpCl-33">
          <mxGeometry y="240" width="60" height="40" as="geometry" />
        </mxCell>
        <mxCell id="2tSrmv2itzcELC8ZZpCl-47" value="Floppy&lt;br&gt;Devices" style="shape=partialRectangle;html=1;whiteSpace=wrap;connectable=0;overflow=hidden;fillColor=none;top=0;left=0;bottom=0;right=0;" vertex="1" parent="2tSrmv2itzcELC8ZZpCl-46">
          <mxGeometry width="60" height="40" as="geometry" />
        </mxCell>
        <mxCell id="2tSrmv2itzcELC8ZZpCl-48" value="" style="shape=partialRectangle;html=1;whiteSpace=wrap;collapsible=0;dropTarget=0;pointerEvents=0;fillColor=none;top=0;left=0;bottom=0;right=0;points=[[0,0.5],[1,0.5]];portConstraint=eastwest;" vertex="1" parent="2tSrmv2itzcELC8ZZpCl-33">
          <mxGeometry y="280" width="60" height="40" as="geometry" />
        </mxCell>
        <mxCell id="2tSrmv2itzcELC8ZZpCl-49" value="&lt;meta charset=&quot;utf-8&quot;&gt;&lt;span style=&quot;color: rgb(0, 0, 0); font-family: helvetica; font-size: 12px; font-style: normal; font-weight: 400; letter-spacing: normal; text-align: center; text-indent: 0px; text-transform: none; word-spacing: 0px; background-color: rgb(248, 249, 250); display: inline; float: none;&quot;&gt;Parallel Devices&lt;/span&gt;" style="shape=partialRectangle;html=1;whiteSpace=wrap;connectable=0;overflow=hidden;fillColor=none;top=0;left=0;bottom=0;right=0;" vertex="1" parent="2tSrmv2itzcELC8ZZpCl-48">
          <mxGeometry width="60" height="40" as="geometry" />
        </mxCell>
        <mxCell id="2tSrmv2itzcELC8ZZpCl-53" value="" style="shape=table;html=1;whiteSpace=wrap;startSize=0;container=1;collapsible=0;childLayout=tableLayout;" vertex="1" parent="1">
          <mxGeometry x="200" y="590" width="60" height="320" as="geometry" />
        </mxCell>
        <mxCell id="2tSrmv2itzcELC8ZZpCl-54" value="" style="shape=partialRectangle;html=1;whiteSpace=wrap;collapsible=0;dropTarget=0;pointerEvents=0;fillColor=none;top=0;left=0;bottom=0;right=0;points=[[0,0.5],[1,0.5]];portConstraint=eastwest;" vertex="1" parent="2tSrmv2itzcELC8ZZpCl-53">
          <mxGeometry width="60" height="40" as="geometry" />
        </mxCell>
        <mxCell id="2tSrmv2itzcELC8ZZpCl-55" value="CMOS&lt;br&gt;Clock" style="shape=partialRectangle;html=1;whiteSpace=wrap;connectable=0;overflow=hidden;fillColor=none;top=0;left=0;bottom=0;right=0;" vertex="1" parent="2tSrmv2itzcELC8ZZpCl-54">
          <mxGeometry width="60" height="40" as="geometry" />
        </mxCell>
        <mxCell id="2tSrmv2itzcELC8ZZpCl-56" value="" style="shape=partialRectangle;html=1;whiteSpace=wrap;collapsible=0;dropTarget=0;pointerEvents=0;fillColor=none;top=0;left=0;bottom=0;right=0;points=[[0,0.5],[1,0.5]];portConstraint=eastwest;" vertex="1" parent="2tSrmv2itzcELC8ZZpCl-53">
          <mxGeometry y="40" width="60" height="40" as="geometry" />
        </mxCell>
        <mxCell id="2tSrmv2itzcELC8ZZpCl-57" value="Avaliable" style="shape=partialRectangle;html=1;whiteSpace=wrap;connectable=0;overflow=hidden;fillColor=none;top=0;left=0;bottom=0;right=0;" vertex="1" parent="2tSrmv2itzcELC8ZZpCl-56">
          <mxGeometry width="60" height="40" as="geometry" />
        </mxCell>
        <mxCell id="2tSrmv2itzcELC8ZZpCl-58" value="" style="shape=partialRectangle;html=1;whiteSpace=wrap;collapsible=0;dropTarget=0;pointerEvents=0;fillColor=none;top=0;left=0;bottom=0;right=0;points=[[0,0.5],[1,0.5]];portConstraint=eastwest;" vertex="1" parent="2tSrmv2itzcELC8ZZpCl-53">
          <mxGeometry y="80" width="60" height="40" as="geometry" />
        </mxCell>
        <mxCell id="2tSrmv2itzcELC8ZZpCl-59" value="&lt;meta charset=&quot;utf-8&quot;&gt;&lt;span style=&quot;color: rgb(0, 0, 0); font-family: helvetica; font-size: 12px; font-style: normal; font-weight: 400; letter-spacing: normal; text-align: center; text-indent: 0px; text-transform: none; word-spacing: 0px; background-color: rgb(248, 249, 250); display: inline; float: none;&quot;&gt;Avaliable&lt;/span&gt;" style="shape=partialRectangle;html=1;whiteSpace=wrap;connectable=0;overflow=hidden;fillColor=none;top=0;left=0;bottom=0;right=0;" vertex="1" parent="2tSrmv2itzcELC8ZZpCl-58">
          <mxGeometry width="60" height="40" as="geometry" />
        </mxCell>
        <mxCell id="2tSrmv2itzcELC8ZZpCl-60" value="" style="shape=partialRectangle;html=1;whiteSpace=wrap;collapsible=0;dropTarget=0;pointerEvents=0;fillColor=none;top=0;left=0;bottom=0;right=0;points=[[0,0.5],[1,0.5]];portConstraint=eastwest;" vertex="1" parent="2tSrmv2itzcELC8ZZpCl-53">
          <mxGeometry y="120" width="60" height="40" as="geometry" />
        </mxCell>
        <mxCell id="2tSrmv2itzcELC8ZZpCl-61" value="&lt;meta charset=&quot;utf-8&quot;&gt;&lt;span style=&quot;color: rgb(0, 0, 0); font-family: helvetica; font-size: 12px; font-style: normal; font-weight: 400; letter-spacing: normal; text-align: center; text-indent: 0px; text-transform: none; word-spacing: 0px; background-color: rgb(248, 249, 250); display: inline; float: none;&quot;&gt;Avaliable&lt;/span&gt;" style="shape=partialRectangle;html=1;whiteSpace=wrap;connectable=0;overflow=hidden;fillColor=none;top=0;left=0;bottom=0;right=0;" vertex="1" parent="2tSrmv2itzcELC8ZZpCl-60">
          <mxGeometry width="60" height="40" as="geometry" />
        </mxCell>
        <mxCell id="2tSrmv2itzcELC8ZZpCl-62" value="" style="shape=partialRectangle;html=1;whiteSpace=wrap;collapsible=0;dropTarget=0;pointerEvents=0;fillColor=none;top=0;left=0;bottom=0;right=0;points=[[0,0.5],[1,0.5]];portConstraint=eastwest;" vertex="1" parent="2tSrmv2itzcELC8ZZpCl-53">
          <mxGeometry y="160" width="60" height="40" as="geometry" />
        </mxCell>
        <mxCell id="2tSrmv2itzcELC8ZZpCl-63" value="&lt;meta charset=&quot;utf-8&quot;&gt;&lt;span style=&quot;color: rgb(0, 0, 0); font-family: helvetica; font-size: 12px; font-style: normal; font-weight: 400; letter-spacing: normal; text-align: center; text-indent: 0px; text-transform: none; word-spacing: 0px; background-color: rgb(248, 249, 250); display: inline; float: none;&quot;&gt;Avaliable&lt;/span&gt;" style="shape=partialRectangle;html=1;whiteSpace=wrap;connectable=0;overflow=hidden;fillColor=none;top=0;left=0;bottom=0;right=0;" vertex="1" parent="2tSrmv2itzcELC8ZZpCl-62">
          <mxGeometry width="60" height="40" as="geometry" />
        </mxCell>
        <mxCell id="2tSrmv2itzcELC8ZZpCl-64" value="" style="shape=partialRectangle;html=1;whiteSpace=wrap;collapsible=0;dropTarget=0;pointerEvents=0;fillColor=none;top=0;left=0;bottom=0;right=0;points=[[0,0.5],[1,0.5]];portConstraint=eastwest;" vertex="1" parent="2tSrmv2itzcELC8ZZpCl-53">
          <mxGeometry y="200" width="60" height="40" as="geometry" />
        </mxCell>
        <mxCell id="2tSrmv2itzcELC8ZZpCl-65" value="Math&lt;br&gt;Processor" style="shape=partialRectangle;html=1;whiteSpace=wrap;connectable=0;overflow=hidden;fillColor=none;top=0;left=0;bottom=0;right=0;" vertex="1" parent="2tSrmv2itzcELC8ZZpCl-64">
          <mxGeometry width="60" height="40" as="geometry" />
        </mxCell>
        <mxCell id="2tSrmv2itzcELC8ZZpCl-66" value="" style="shape=partialRectangle;html=1;whiteSpace=wrap;collapsible=0;dropTarget=0;pointerEvents=0;fillColor=none;top=0;left=0;bottom=0;right=0;points=[[0,0.5],[1,0.5]];portConstraint=eastwest;" vertex="1" parent="2tSrmv2itzcELC8ZZpCl-53">
          <mxGeometry y="240" width="60" height="40" as="geometry" />
        </mxCell>
        <mxCell id="2tSrmv2itzcELC8ZZpCl-67" value="Primary&lt;br&gt;HD" style="shape=partialRectangle;html=1;whiteSpace=wrap;connectable=0;overflow=hidden;fillColor=none;top=0;left=0;bottom=0;right=0;" vertex="1" parent="2tSrmv2itzcELC8ZZpCl-66">
          <mxGeometry width="60" height="40" as="geometry" />
        </mxCell>
        <mxCell id="2tSrmv2itzcELC8ZZpCl-68" value="" style="shape=partialRectangle;html=1;whiteSpace=wrap;collapsible=0;dropTarget=0;pointerEvents=0;fillColor=none;top=0;left=0;bottom=0;right=0;points=[[0,0.5],[1,0.5]];portConstraint=eastwest;" vertex="1" parent="2tSrmv2itzcELC8ZZpCl-53">
          <mxGeometry y="280" width="60" height="40" as="geometry" />
        </mxCell>
        <mxCell id="2tSrmv2itzcELC8ZZpCl-69" value="Secondary&lt;br&gt;HD" style="shape=partialRectangle;html=1;whiteSpace=wrap;connectable=0;overflow=hidden;fillColor=none;top=0;left=0;bottom=0;right=0;" vertex="1" parent="2tSrmv2itzcELC8ZZpCl-68">
          <mxGeometry width="60" height="40" as="geometry" />
        </mxCell>
      </root>
    </mxGraphModel>
  </diagram>
</mxfile>
